# File produced by Open Asset Import Library (http://www.assimp.sf.net)
# (assimp v3.1.187496374)

mtllib Desk.obj.mtl

# 110 vertex positions
v  21.4 72.5 2.3
v  10 72.5 2.3
v  21.4 27.5 2.3
v  10 0 2.3
v  23 27.5 2.3
v  65 0 2.3
v  23 72.5 2.3
v  65 72.5 2.3
v  10 0 0
v  10 72.5 0
v  65 0 0
v  65 72.5 0
v  72.5 74.6 0
v  72.5 72.5 0
v  2.5 72.5 0
v  2.5 74.6 0
v  73.95 74.6 0
v  73.95 72.5 0
v  74.1323 74.5841 0
v  74.3091 74.5367 0
v  74.475 74.4593 0
v  74.6249 74.3543 0
v  74.7543 74.2249 0
v  74.8593 74.075 0
v  74.9367 73.9091 0
v  74.9841 73.7323 0
v  75 73.55 0
v  74.9841 73.3677 0
v  74.9367 73.1909 0
v  74.8593 73.025 0
v  74.7543 72.8751 0
v  74.475 72.6407 0
v  74.1323 72.516 0
v  74.6249 72.7457 0
v  74.3091 72.5633 0
v  1.05 74.6 0
v  1.05 72.5 0
v  0.877175 74.5857 0
v  0.709068 74.5431 0
v  0.550255 74.4734 0
v  0.405077 74.3786 0
v  0.277493 74.2611 0
v  0.170976 74.1243 0
v  0.0884384 73.9718 0
v  0.0321306 73.8078 0
v  0.00358745 73.6367 0
v  0.00358745 73.4633 0
v  0.877175 72.5143 0
v  0.709068 72.5569 0
v  0.550255 72.6265 0
v  0.405077 72.7214 0
v  0.277493 72.8389 0
v  0.170976 72.9757 0
v  0.0884384 73.1282 0
v  0.0321306 73.2922 0
v  23 27.5 157.7
v  21.4 27.5 157.7
v  23 72.5 157.7
v  21.4 72.5 157.7
v  65 72.5 157.7
v  72.5 72.5 160
v  65 72.5 160
v  73.95 72.5 160
v  10 72.5 157.7
v  10 72.5 160
v  2.5 72.5 160
v  1.05 72.5 160
v  10 0 160
v  10 0 157.7
v  65 0 160
v  65 0 157.7
v  2.5 74.6 160
v  72.5 74.6 160
v  1.05 74.6 160
v  0.877175 74.5857 160
v  0.709068 74.5431 160
v  0.550255 74.4734 160
v  0.405077 74.3786 160
v  0.277493 74.2611 160
v  0.170976 74.1243 160
v  0.0884384 73.9718 160
v  0.0321306 73.8078 160
v  0.00358745 73.6367 160
v  0.00358745 73.4633 160
v  0.877175 72.5143 160
v  0.709068 72.5569 160
v  0.550255 72.6265 160
v  0.405077 72.7214 160
v  0.277493 72.8389 160
v  0.170976 72.9757 160
v  0.0321306 73.2922 160
v  0.0884384 73.1282 160
v  73.95 74.6 160
v  74.1323 74.5841 160
v  74.3091 74.5367 160
v  74.475 74.4593 160
v  74.6249 74.3543 160
v  74.7543 74.2249 160
v  74.8593 74.075 160
v  74.9367 73.9091 160
v  74.9841 73.7323 160
v  75 73.55 160
v  74.1323 72.516 160
v  74.3091 72.5633 160
v  74.475 72.6407 160
v  74.6249 72.7457 160
v  74.8593 73.025 160
v  74.9841 73.3677 160
v  74.7543 72.8751 160
v  74.9367 73.1909 160

# 0 UV coordinates

# 82 vertex normals
vn 0 0 1
vn -1 -1.53134e-16 0
vn 0 -1 0
vn 1 2.29701e-16 0
vn 0 0 -1
vn 1 0 0
vn -1 0 0
vn 0 1 0
vn -0.0550319 -0.998485 -8.14636e-18
vn -0.110064 -0.993925 -1.62927e-17
vn -0.218626 -0.975809 -3.23632e-17
vn -0.272157 -0.962253 -4.02874e-17
vn -0.376258 -0.926515 -5.56973e-17
vn -0.426827 -0.904333 -6.31831e-17
vn -0.523625 -0.851949 -7.75121e-17
vn -0.569854 -0.821746 -8.43553e-17
vn -0.65671 -0.754143 -9.72126e-17
vn -0.697337 -0.716744 -1.03227e-16
vn -0.771881 -0.635767 -1.14261e-16
vn -0.805798 -0.59219 -1.19282e-16
vn -0.865997 -0.500048 -1.28193e-16
vn -0.89228 -0.451483 -1.32084e-16
vn -0.936492 -0.35069 -1.38629e-16
vn -0.954422 -0.298461 -1.41283e-16
vn -0.981441 -0.191766 -1.45282e-16
vn -0.99053 -0.137298 -1.46628e-16
vn -0.999619 -0.0276103 -1.47973e-16
vn -0.999619 0.0276103 -1.47973e-16
vn -0.99053 0.137298 -1.46628e-16
vn -0.981441 0.191766 -1.45282e-16
vn -0.954422 0.298461 -1.41283e-16
vn -0.936492 0.35069 -1.38629e-16
vn -0.89228 0.451483 -1.32084e-16
vn -0.865997 0.500048 -1.28193e-16
vn -0.805798 0.59219 -1.19282e-16
vn -0.771881 0.635767 -1.14261e-16
vn -0.697337 0.716744 -1.03227e-16
vn -0.65671 0.754143 -9.72126e-17
vn -0.569854 0.821746 -8.43553e-17
vn -0.523625 0.851949 -7.75121e-17
vn -0.426827 0.904333 -6.31831e-17
vn -0.376258 0.926515 -5.56973e-17
vn -0.272157 0.962253 -4.02874e-17
vn -0.218626 0.975809 -3.23632e-17
vn -0.110064 0.993925 -1.62927e-17
vn -0.0550319 0.998485 -8.14636e-18
vn 0.0580791 -0.998312 8.59744e-18
vn 0.116158 -0.993231 1.71949e-17
vn 0.230552 -0.97306 3.41285e-17
vn 0.286866 -0.957971 4.24647e-17
vn 0.396019 -0.918242 5.86226e-17
vn 0.448858 -0.893603 6.64443e-17
vn 0.549454 -0.835524 8.13355e-17
vn 0.597211 -0.802084 8.8405e-17
vn 0.686194 -0.727419 1.01577e-16
vn 0.727419 -0.686194 1.0768e-16
vn 0.802084 -0.597211 1.18732e-16
vn 0.835524 -0.549454 1.23682e-16
vn 0.893603 -0.448858 1.3228e-16
vn 0.918242 -0.396019 1.35927e-16
vn 0.957971 -0.286866 1.41808e-16
vn 0.97306 -0.230552 1.44042e-16
vn 0.993231 -0.116158 1.47028e-16
vn 0.998312 -0.0580791 1.4778e-16
vn 0.998312 0.0580791 1.4778e-16
vn 0.993231 0.116158 1.47028e-16
vn 0.97306 0.230552 1.44042e-16
vn 0.957971 0.286866 1.41808e-16
vn 0.918242 0.396019 1.35927e-16
vn 0.893603 0.448858 1.3228e-16
vn 0.835524 0.549454 1.23682e-16
vn 0.802084 0.597211 1.18732e-16
vn 0.727419 0.686194 1.0768e-16
vn 0.686194 0.727419 1.01577e-16
vn 0.597211 0.802084 8.8405e-17
vn 0.549454 0.835524 8.13355e-17
vn 0.448858 0.893603 6.64443e-17
vn 0.396019 0.918242 5.86226e-17
vn 0.286866 0.957971 4.24647e-17
vn 0.230552 0.97306 3.41285e-17
vn 0.116158 0.993231 1.71949e-17
vn 0.0580791 0.998312 8.59744e-18

# Mesh '<STL_BINARY>' with 216 faces
g <STL_BINARY>
usemtl DefaultMaterial
f  1//1 2//1 3//1
f  3//1 2//1 4//1
f  3//1 4//1 5//1
f  5//1 4//1 6//1
f  5//1 6//1 7//1
f  7//1 6//1 8//1
f  4//2 2//2 9//2
f  9//2 2//2 10//2
f  6//3 4//3 11//3
f  11//3 4//3 9//3
f  8//4 6//4 12//4
f  12//4 6//4 11//4
f  11//5 9//5 12//5
f  12//5 9//5 10//5
f  10//5 13//5 12//5
f  13//5 14//5 12//5
f  15//5 16//5 10//5
f  10//5 16//5 13//5
f  17//5 18//5 13//5
f  13//5 18//5 14//5
f  17//5 19//5 18//5
f  18//5 19//5 20//5
f  18//5 20//5 21//5
f  21//5 22//5 18//5
f  18//5 22//5 23//5
f  18//5 23//5 24//5
f  24//5 25//5 18//5
f  18//5 25//5 26//5
f  18//5 26//5 27//5
f  18//5 27//5 28//5
f  28//5 29//5 18//5
f  18//5 29//5 30//5
f  18//5 30//5 31//5
f  32//5 33//5 18//5
f  32//5 18//5 34//5
f  34//5 18//5 31//5
f  35//5 33//5 32//5
f  15//5 36//5 16//5
f  37//5 36//5 15//5
f  37//5 38//5 36//5
f  37//5 39//5 38//5
f  40//5 39//5 37//5
f  41//5 40//5 37//5
f  37//5 42//5 41//5
f  37//5 43//5 42//5
f  44//5 43//5 37//5
f  45//5 44//5 37//5
f  37//5 46//5 45//5
f  37//5 47//5 46//5
f  48//5 47//5 37//5
f  47//5 48//5 49//5
f  49//5 50//5 47//5
f  47//5 50//5 51//5
f  47//5 51//5 52//5
f  52//5 53//5 47//5
f  47//5 53//5 54//5
f  47//5 54//5 55//5
f  5//3 56//3 3//3
f  3//3 56//3 57//3
f  5//6 7//6 56//6
f  56//6 7//6 58//6
f  1//7 3//7 59//7
f  59//7 3//7 57//7
f  8//3 12//3 14//3
f  60//3 7//3 8//3
f  60//3 8//3 61//3
f  61//3 8//3 14//3
f  14//3 18//3 61//3
f  61//3 62//3 60//3
f  61//3 18//3 63//3
f  58//3 7//3 60//3
f  64//3 65//3 66//3
f  2//3 59//3 64//3
f  2//3 64//3 15//3
f  15//3 64//3 66//3
f  66//3 67//3 15//3
f  15//3 10//3 2//3
f  15//3 67//3 37//3
f  1//3 59//3 2//3
f  68//2 65//2 69//2
f  69//2 65//2 64//2
f  70//3 68//3 71//3
f  71//3 68//3 69//3
f  62//4 70//4 60//4
f  60//4 70//4 71//4
f  68//1 70//1 65//1
f  65//1 70//1 62//1
f  66//1 65//1 72//1
f  72//1 65//1 62//1
f  72//1 62//1 73//1
f  73//1 62//1 61//1
f  66//1 72//1 67//1
f  67//1 72//1 74//1
f  67//1 74//1 75//1
f  75//1 76//1 67//1
f  67//1 76//1 77//1
f  67//1 77//1 78//1
f  78//1 79//1 67//1
f  67//1 79//1 80//1
f  67//1 80//1 81//1
f  81//1 82//1 67//1
f  67//1 82//1 83//1
f  67//1 83//1 84//1
f  85//1 67//1 84//1
f  84//1 86//1 85//1
f  84//1 87//1 86//1
f  88//1 87//1 84//1
f  84//1 89//1 88//1
f  84//1 90//1 89//1
f  84//1 91//1 92//1
f  92//1 90//1 84//1
f  73//1 61//1 93//1
f  93//1 61//1 63//1
f  63//1 94//1 93//1
f  63//1 95//1 94//1
f  96//1 95//1 63//1
f  63//1 97//1 96//1
f  63//1 98//1 97//1
f  99//1 98//1 63//1
f  100//1 99//1 63//1
f  63//1 101//1 100//1
f  63//1 102//1 101//1
f  103//1 102//1 63//1
f  103//1 104//1 102//1
f  102//1 104//1 105//1
f  102//1 105//1 106//1
f  107//1 108//1 102//1
f  107//1 102//1 109//1
f  109//1 102//1 106//1
f  110//1 108//1 107//1
f  58//5 60//5 56//5
f  56//5 60//5 71//5
f  56//5 71//5 57//5
f  57//5 71//5 69//5
f  57//5 69//5 59//5
f  59//5 69//5 64//5
f  13//8 16//8 73//8
f  73//8 17//8 13//8
f  73//8 16//8 72//8
f  36//8 74//8 16//8
f  16//8 74//8 72//8
f  93//8 17//8 73//8
f  37//9 67//9 85//9
f  37//10 85//10 48//10
f  48//11 85//11 86//11
f  48//12 86//12 49//12
f  49//13 86//13 87//13
f  49//14 87//14 50//14
f  50//15 87//15 88//15
f  50//16 88//16 51//16
f  51//17 88//17 89//17
f  51//18 89//18 52//18
f  52//19 89//19 90//19
f  52//20 90//20 53//20
f  53//21 90//21 92//21
f  53//22 92//22 54//22
f  54//23 92//23 91//23
f  54//24 91//24 55//24
f  55//25 91//25 84//25
f  55//26 84//26 47//26
f  47//27 84//27 83//27
f  47//28 83//28 46//28
f  46//29 83//29 82//29
f  46//30 82//30 45//30
f  45//31 82//31 81//31
f  45//32 81//32 44//32
f  44//33 81//33 80//33
f  44//34 80//34 43//34
f  43//35 80//35 79//35
f  43//36 79//36 42//36
f  42//37 79//37 78//37
f  42//38 78//38 41//38
f  41//39 78//39 77//39
f  41//40 77//40 40//40
f  40//41 77//41 76//41
f  40//42 76//42 39//42
f  39//43 76//43 75//43
f  39//44 75//44 38//44
f  38//45 75//45 74//45
f  38//46 74//46 36//46
f  63//47 18//47 33//47
f  63//48 33//48 103//48
f  103//49 33//49 35//49
f  103//50 35//50 104//50
f  104//51 35//51 32//51
f  104//52 32//52 105//52
f  105//53 32//53 34//53
f  105//54 34//54 106//54
f  106//55 34//55 31//55
f  106//56 31//56 109//56
f  109//57 31//57 30//57
f  109//58 30//58 107//58
f  107//59 30//59 29//59
f  107//60 29//60 110//60
f  110//61 29//61 28//61
f  110//62 28//62 108//62
f  108//63 28//63 27//63
f  108//64 27//64 102//64
f  102//65 27//65 26//65
f  102//66 26//66 101//66
f  101//67 26//67 25//67
f  101//68 25//68 100//68
f  100//69 25//69 24//69
f  100//70 24//70 99//70
f  99//71 24//71 23//71
f  99//72 23//72 98//72
f  98//73 23//73 22//73
f  98//74 22//74 97//74
f  97//75 22//75 21//75
f  97//76 21//76 96//76
f  96//77 21//77 20//77
f  96//78 20//78 95//78
f  95//79 20//79 19//79
f  95//80 19//80 94//80
f  94//81 19//81 17//81
f  94//82 17//82 93//82

